<svg viewBox="0 0 19 19"><path class="st0" d="M9.02 14.32c-.22-.06-.43-.15-.64-.24l-1.76 1.76c-.95.95-2.5.95-3.46 0-.95-.95-.95-2.5 0-3.46l3.46-3.46c.44-.44 1.02-.67 1.6-.7.27-.01.54.02.81.09.38.11.75.31 1.05.61.21.21.35.46.47.71.07-.06.15-.11.21-.17l1.6-1.6a4.28 4.28 0 00-.55-.66c-.41-.41-.86-.72-1.35-.95-.28-.14-.56-.24-.85-.32-1.11-.3-2.31-.19-3.37.31-.4.19-.78.44-1.12.74-.08.07-.16.14-.23.21l-3.46 3.46a4.895 4.895 0 000 6.92 4.895 4.895 0 006.92 0l3.28-3.28c-.85.24-1.76.26-2.61.03z"></path><path class="st0" d="M17.57 1.43a4.895 4.895 0 00-6.92 0L7.54 4.54c.79-.19 1.63-.2 2.42.02.26.07.5.17.75.28l1.67-1.67c.95-.95 2.5-.95 3.46 0 .95.95.95 2.5 0 3.46l-3.46 3.46c-.44.45-1.02.67-1.6.7-.27.01-.54-.02-.81-.1-.38-.11-.75-.31-1.05-.61-.26-.27-.44-.6-.55-.93-.06.05-.13.09-.19.15l-1.65 1.65c.19.3.4.59.66.86.41.41.86.72 1.35.95a4.915 4.915 0 004.21 0c.4-.19.78-.44 1.12-.74.08-.07.16-.13.23-.21l3.46-3.46a4.886 4.886 0 00.01-6.92z"></path></svg>