<?xml version="1.0" encoding="utf-8"?>
<!-- Generator: Adobe Illustrator 23.0.2, SVG Export Plug-In . SVG Version: 6.00 Build 0)  -->
<svg version="1.1" id="Слой_1" xmlns="http://www.w3.org/2000/svg" xmlns:xlink="http://www.w3.org/1999/xlink" x="0px" y="0px"
	 viewBox="0 0 640 640" style="enable-background:new 0 0 640 640;" xml:space="preserve">
<style type="text/css">
	.st0{fill:#29968E;}
	.st1{fill:#F272AC;}
	.st2{fill:#11575B;}
	.st3{fill:#2AA8A1;stroke:#11575B;stroke-width:8;stroke-miterlimit:10;}
	.st4{fill:#2AA8A1;stroke:#167070;stroke-width:8;stroke-miterlimit:10;}
	.st5{fill:#CF598A;}
	.st6{fill:#FF7CB3;}
	.st7{fill:#B75E86;stroke:#B75E86;stroke-miterlimit:10;}
	.st8{fill:#EA6EA6;}
	.st9{fill:#494949;}
	.st10{fill:#F4F4F4;}
	.st11{fill:#F4F4F4;stroke:#F4F4F4;stroke-miterlimit:10;}
	.st12{fill:#3F3F3F;}
	.st13{fill:#246693;}
	.st14{fill:#3886A8;}
	.st15{fill:#57A0C1;}
	.st16{fill:#FFFFFF;}
</style>
<path class="st0" d="M607.1,333.9"/>
<path class="st1" d="M535.5,463.2"/>
<g>
	<g id="shadow_1_">
		<g id="shadow">
		</g>
		<ellipse class="st2" cx="352.7" cy="611.8" rx="67.1" ry="20.1"/>
	</g>
	<g id="circle">
		<path class="st3" d="M615.3,303.5c0,163.1-132.3,295.3-295.3,295.3c-9.9,0-47.3,1.3-92.8-14.8c-0.6-0.1-1-0.3-1.6-0.6
			C122.5,546.1,24.1,437.8,24.7,303.5C25.3,151.7,151.9,8.1,320,8.1C483.1,8.1,615.3,140.4,615.3,303.5z"/>
		<path class="st3" d="M294.6,595.9"/>
	</g>
	<path class="st4" d="M206,527"/>
	<path class="st0" d="M33.3,342.6c3,21.1,9.3,50.2,24.3,81.7c33.9,71.5,109.8,151.5,222.7,167.4c122.1,17.1,224-49.7,274.4-117.7
		c9.2-12.4,31.2-44.4,44.5-91.3c22-78.1,3.7-142.9-2.8-164.9c-12.6-42.2-30.9-70.2-35.6-77c-18.4-27-38.4-45.8-53.3-57.6
		c8.8,27.8,24.4,91.3,3.8,165.3c-3.2,11.4-45.8,154.9-186.1,194.8C220.7,473,104.7,433.2,33.3,342.6z"/>
	<path class="st0" d="M494.9,107.3"/>
	<path class="st0" d="M31.6,319.6"/>
	<path class="st5" d="M330,530.7c-3.7,25.7-7.2,51.6-10.9,77.3c7.1,3.4,18.1,7.6,31.8,7.8c5.8,0.1,14.3,0.1,24-4.2
		c5.1-2.3,8.8-4.9,11.3-7.1c-6.8-25.3-13.4-50.7-20.2-76c-3.2-1.4-8.2-3-14.4-3.1C341.3,525,333.6,528.7,330,530.7z"/>
	<path class="st5" d="M263.6,535.9c-6.1,16.1-12.3,32.1-18.4,48.2c8.6,2.5,18.4,4.8,29.1,6.6c11.2,2,21.3,3,30.7,3.4
		c-0.1-6.5-0.3-13-0.4-19.4c1.7-1.1,5.2-3,9.9-3.1c9.3-0.1,15.3,6.8,16.1,7.8c-0.7-7.5-0.6-18.8,3.8-30.9c1.4-3.8,3-7.2,4.7-10.2
		c-12.9-0.7-26.1-1.3-39.6-1.7C287.4,536.2,275.4,536,263.6,535.9z"/>
	<path class="st5" d="M318.6,560"/>
	<g>
		<path class="st6" d="M516.3,362.5c1.7,32.5-6.2,64.3-21.1,92.4c-15.4,29.2-38.3,54.7-65.8,72.9c-13,8.6-56.4,36.5-117.3,33.3
			c-31.9-1.7-58.1-12.6-63.4-14.7c0,0-2.8-1.1-7.5-3.4c-1.8-0.8-3.8-1.8-5.9-3c-2.7-1.4-5.5-3-8.6-4.7c-5.7-3.2-11.9-7.1-17.8-11.4
			c-23.9-17.5-90-78.8-86.9-161.4c3.4-89.7,83.1-186.1,197.1-186.1C433,176.4,511.6,272.7,516.3,362.5z"/>
	</g>
	<path class="st7" d="M500,447"/>
	<path class="st8" d="M558.7,442.3"/>
	<path class="st1" d="M128,410.3c1.4,5.1,3.5,12,6.8,20.1c2.3,5.5,9.6,22.7,25.4,43.9c10.5,14,27.4,36.5,57.9,56
		c22.7,14.7,42.7,21.1,48,22.6c19.1,5.9,35.2,7.5,43.8,8.1c9.3,0.6,22,0.7,36.7-1.3c31.5-4.2,53.8-15.5,65-21.3
		c21.2-11,34.9-22.6,38.2-25.3c17.5-15.1,27.7-29.7,33.9-38.7c7.9-11.4,12.4-20.3,14.1-24c1-2,3.1-6.6,5.7-13.3
		c4-10.5,10.7-28.7,12.4-52.7c0.3-3.4,1.1-17.9-1.1-36.6c0-0.3,0-0.6-0.1-0.7c-0.7-4.9-3-21.1-11.2-42c0,0-12.9-32.8-33.9-57.4
		c-4.4-5.1-8.5-9.3-8.5-9.3c6.9,20.6,17.7,63.3,5.7,114.7c-4.4,18.8-16.2,66.6-60.8,105.4c-8.6,7.5-23,19.9-45.2,29.4
		c-61.7,26.3-134.4,9.5-182.3-24C165.4,454.5,145.2,437.8,128,410.3z"/>
	<path class="st9" d="M241,452.2c-1.6,7.1-4.9,27.8,6.5,47.2c16,26.7,48.7,29.7,63.6,31.1c16.4,1.6,41.7,3.8,59.3-14.1
		c17.2-17.4,16-41.7,15.5-46.6C337.7,464,289.3,458.2,241,452.2z"/>
	<path class="st10" d="M323.4,462.3c-1.1,0.8-7.9,6.1-8.6,15.5c-0.6,8.1,3.5,13.6,4.5,15c1.8,1.1,7.9,4.8,16,3.8
		c5.4-0.6,9.2-3,11-4.4c1.3-2,3.4-5.8,3.8-11.2c0.6-8.3-3.5-14.4-4.8-16.1C338.1,464,330.7,463.1,323.4,462.3z"/>
	<path class="st11" d="M261.5,458.6"/>
	<path class="st10" d="M280.9,457c-1.1,0.8-8.3,6.6-8.6,16.5c-0.1,6.5,2.7,11.2,4,12.9c1.7,1.4,6.1,4.8,12.9,5.5
		c7.2,0.8,12.7-1.8,14.6-2.8c1.3-1.7,4.8-6.6,5.1-14c0.3-7.9-3.4-13.6-4.5-15.3C296.4,459,288.6,458,280.9,457z"/>
	<path class="st12" d="M242.6,488.8c1.4,4,4,9.7,8.5,15.5c17.8,23.2,48.3,25.3,60.1,26.1c18.7,1.3,42.4,3.1,59.3-14.1
		c17.2-17.4,16-41.7,15.5-46.6c-2.8,6.5-9.2,18.5-21.9,29c-13.1,10.7-26.1,14-32.5,15.5c-28.8,7.1-52.6-2.8-59.3-5.7
		C258,502.5,248.2,494.3,242.6,488.8z"/>
	<path class="st10" d="M301.9,458.7"/>
	<g id="horns_1_">
		<path class="st10" d="M173.6,257.4c-4.8-2-2.7-5.5-15.4-31.9c-1.3-2.8-4.1-8.5-5.2-16.4c-0.8-5.7-0.4-10-0.1-11.4
			c0.3-2.4,1.1-8.1,4.4-14.7c2-4,7.6-14,11-12.9c2,0.6,1.1,4.7,3.5,13.1c1.3,4.4,3.1,11.3,8.2,17.1c4.9,5.7,11,8.2,14.7,9.6
			c12.3,4.9,20.5,2.4,22.9,6.6c1,1.7,1,4.7-2.8,9.9C213.5,228,189.4,263.9,173.6,257.4z"/>
		<path class="st10" d="M465.4,257.4c4.9-2,2.7-5.5,15.4-31.9c1.3-2.8,4.1-8.5,5.2-16.4c0.7-5.7,0.4-10,0.1-11.4
			c-0.3-2.4-1.1-8.1-4.4-14.7c-2-4-7.6-14-11-12.9c-2,0.6-1.1,4.7-3.5,13.1c-1.3,4.4-3.1,11.3-8.2,17.1c-4.9,5.7-11,8.2-14.7,9.6
			c-12.3,4.9-20.5,2.4-22.9,6.6c-1,1.7-1,4.7,2.8,9.9C425.7,228,449.6,263.9,465.4,257.4z"/>
	</g>
	<g id="hair_1_">
		<g id="hair">
			<path class="st13" d="M275.5,163.6c0.1-1.4,1.1-12.2,9.5-17.4c8.8-5.5,22.2-2.7,30.4,8.1c9.6-17.7,26.8-25,38-20.3
				c5.8,2.4,11.7,8.9,14.4,16.7c1.7,4.5,1.8,8.5,1.8,11c11.3,1.3,20.3,6.2,21.5,12.6c1.6,9.2-14.6,17.9-19.6,20.8
				c-8.2,4.5-15.4,5.9-23.5,7.3c-12.7,2.4-22.5,2.1-34.3,1.8c-16.2-0.4-24.4-0.6-34.3-3.7c-11.9-3.7-20.5-9.5-25.7-13.7
				c-4.9-4.8-6.9-11-4.9-16c1.8-4.5,6.4-6.2,9-7.3C265.3,160.2,272.8,162.6,275.5,163.6z"/>
		</g>
		<g id="hair_2_">
			<path class="st14" d="M283.4,172.9c0.1-1.1,0.8-10,7.8-14.3c7.2-4.5,18.2-2.3,25,6.6c7.9-14.6,22.2-20.6,31.4-16.8
				c4.8,2,9.6,7.3,11.9,13.7c1.3,3.7,1.6,7.1,1.6,9.2c9.3,1.1,16.8,5.1,17.7,10.3c1.3,7.5-12,14.8-16.2,17.1
				c-6.8,3.7-12.7,4.8-19.4,6.1c-10.6,2-18.5,1.8-28.4,1.6c-13.4-0.3-20.2-0.6-28.4-3.1c-9.7-3.1-17-7.9-21.3-11.3
				c-4.1-4-5.7-9.2-4.1-13.1c1.6-3.7,5.2-5.2,7.5-6.1C275.1,170.2,281.3,172.2,283.4,172.9z"/>
		</g>
		<g id="hair_3_">
			<path class="st15" d="M291.3,182.5c0-0.8,0.7-7.6,5.9-10.9c5.5-3.4,13.8-1.7,18.9,5.1c5.9-11,16.8-15.7,23.7-12.7
				c3.7,1.6,7.3,5.7,9,10.3c1,2.8,1.1,5.4,1.1,6.9c7.1,0.8,12.7,4,13.4,7.8c1,5.7-9,11.2-12.3,13c-5.2,2.8-9.6,3.7-14.7,4.7
				c-7.9,1.4-14,1.4-21.5,1.1c-10.2-0.3-15.3-0.4-21.5-2.3c-7.3-2.3-12.9-5.9-16.1-8.5c-3.1-3-4.2-6.9-3.1-9.9c1.1-2.8,4-4,5.7-4.7
				C285,180.4,289.6,181.8,291.3,182.5z"/>
		</g>
	</g>
	<g id="eye_1_">
		<g>
			<ellipse class="st10" cx="318.6" cy="329.9" rx="109.8" ry="114.5"/>
		</g>
		<g>
			<path class="st9" d="M318.6,407.9c-36.9,0-67-31.4-67-69.9s30.1-69.9,67-69.9s67,31.4,67,69.9S355.6,407.9,318.6,407.9z"/>
		</g>
		<g>
			<path class="st16" d="M319.7,361.8c-15.5,0-29.4-10.3-34.6-25.6c-6.6-19.5,3.1-40.4,21.8-46.8c3.5-1.3,7.3-1.8,11-1.8
				c15.5,0,29.4,10.3,34.6,25.6c3.2,9.5,2.7,19.5-1.4,28.3c-4.1,8.8-11.3,15.4-20.3,18.4C327.2,361.2,323.4,361.8,319.7,361.8z"/>
		</g>
		<g>
			<path class="st16" d="M290.9,391.2c-8.8,0-16-7.2-16-16s7.2-16,16-16c8.9,0,16,7.2,16,16S299.7,391.2,290.9,391.2z"/>
		</g>
	</g>
</g>
</svg>
